<svg width="24" height="28" viewBox="0 0 24 28" fill="none" xmlns="http://www.w3.org/2000/svg">
<g clip-path="url(#clip0_8_530)">
<rect width="24" height="12.5479" transform="translate(0 7.31963)" fill="#9B9B9B"/>
<path d="M2.75209 16.4501L2.92794 15.5968L8.92366 15.8234L8.7478 16.6768L6.23397 16.5817L4.75376 23.6715L3.7857 23.6349L5.26592 16.5451L2.75209 16.4501ZM12.8962 16.8336L13.0721 15.9802L19.0678 16.2069L18.8919 17.0602L16.3781 16.9652L14.8979 24.0549L13.9298 24.0183L15.41 16.9286L12.8962 16.8336Z" fill="white"/>
<path d="M15.1869 9.80959L15.0369 10.6675L9.03716 10.6068L9.18723 9.74895L11.7027 9.77437L12.9687 2.64618L13.9374 2.65597L12.6714 9.78416L15.1869 9.80959Z" fill="white"/>
</g>
<defs>
<clipPath id="clip0_8_530">
<rect width="24" height="28" fill="white"/>
</clipPath>
</defs>
</svg>
